<svg xmlns="http://www.w3.org/2000/svg" viewBox="0 0 512 512">
<defs>
 <linearGradient id="bg" x1="40" y1="20" x2="470" y2="500" gradientUnits="userSpaceOnUse"><stop stop-color="#122846"/><stop offset=".55" stop-color="#07111f"/><stop offset="1" stop-color="#030812"/></linearGradient>
 <linearGradient id="orb" x1="115" y1="80" x2="405" y2="430" gradientUnits="userSpaceOnUse"><stop stop-color="#9ed3ff"/><stop offset=".42" stop-color="#4da2ff"/><stop offset="1" stop-color="#2866c4"/></linearGradient>
 <linearGradient id="rupee" x1="180" y1="155" x2="335" y2="350" gradientUnits="userSpaceOnUse"><stop stop-color="#fff"/><stop offset=".55" stop-color="#d7edff"/><stop offset="1" stop-color="#75b8ff"/></linearGradient>
 <filter id="glow"><feGaussianBlur stdDeviation="12" result="b"/><feMerge><feMergeNode in="b"/><feMergeNode in="SourceGraphic"/></feMerge></filter>
</defs>
<rect width="512" height="512" rx="126" fill="#040b15"/>
<rect x="20" y="20" width="472" height="472" rx="112" fill="url(#bg)" stroke="#24466d" stroke-width="3"/>
<circle cx="256" cy="256" r="153" fill="none" stroke="#3e8fe9" stroke-opacity=".18" stroke-width="28"/>
<ellipse cx="256" cy="256" rx="154" ry="68" fill="none" stroke="#6db8ff" stroke-opacity=".26" stroke-width="5" transform="rotate(-24 256 256)"/>
<path d="M120 335 C168 319 190 284 220 257 C249 230 275 225 303 197 C326 174 344 150 384 132" fill="none" stroke="#66b4ff" stroke-width="11" stroke-linecap="round" filter="url(#glow)"/>
<circle cx="384" cy="132" r="13" fill="#b9e0ff" filter="url(#glow)"/>
<path d="M190 165h116c39 0 67 23 67 57 0 29-22 50-54 54l58 75h-51l-54-72h-35v72h-48V165zm48 39v38h61c16 0 26-7 26-19 0-12-10-19-26-19h-61z" fill="url(#rupee)"/>
<path d="M179 246h165" stroke="#70baff" stroke-width="8" stroke-linecap="round" opacity=".8"/>
<circle cx="123" cy="335" r="8" fill="#79c2ff"/>
</svg>